<svg width="27" height="31" viewBox="0 0 27 31" fill="none" xmlns="http://www.w3.org/2000/svg">
<g clip-path="url(#clip0_0_39)">
<path d="M13.0892 17.3622C17.564 17.3622 21.1915 14.0137 21.1915 9.88314C21.1915 5.75256 17.564 2.40407 13.0892 2.40407C8.61441 2.40407 4.98688 5.75256 4.98688 9.88314C4.98688 14.0137 8.61441 17.3622 13.0892 17.3622Z" fill="white" stroke="black" stroke-width="1.28213"/>
<path d="M19.2327 8.0134H6.94568C5.86386 8.0134 4.98688 8.89038 4.98688 9.9722V22.2593C4.98688 23.3411 5.86386 24.2181 6.94568 24.2181H19.2327C20.3145 24.2181 21.1915 23.3411 21.1915 22.2593V9.9722C21.1915 8.89038 20.3145 8.0134 19.2327 8.0134Z" fill="white" stroke="black" stroke-width="1.28213"/>
<path d="M7.55497 1.20703C7.40001 0.927472 7.50101 0.575231 7.78057 0.420272C8.06012 0.265313 8.41236 0.366317 8.56732 0.64587L11.7184 6.33061C11.8734 6.61016 11.7724 6.96241 11.4928 7.11736C11.2133 7.27232 10.861 7.17132 10.7061 6.89177L7.55497 1.20703Z" fill="white" stroke="black" stroke-width="0.641063"/>
<path d="M21.5472 12.0198C21.5472 10.8397 22.5039 9.88295 23.684 9.88295C24.8642 9.88295 25.8209 10.8397 25.8209 12.0198V19.5879C25.8209 20.7681 24.8642 21.7248 23.684 21.7248C22.5039 21.7248 21.5472 20.7681 21.5472 19.5879V12.0198Z" fill="white" stroke="black" stroke-width="0.641063"/>
<path d="M13.9784 20.6564C13.9784 19.4762 14.9351 18.5195 16.1153 18.5195C17.2954 18.5195 18.2521 19.4762 18.2521 20.6564V28.2245C18.2521 29.4047 17.2954 30.3614 16.1153 30.3614C14.9351 30.3614 13.9784 29.4047 13.9784 28.2245V20.6564Z" fill="white" stroke="black" stroke-width="0.641063"/>
<path d="M18.6216 1.20701C18.7766 0.927457 18.6756 0.575215 18.396 0.420257C18.1165 0.265298 17.7642 0.366301 17.6093 0.645855L14.4582 6.3306C14.3032 6.61015 14.4042 6.96239 14.6837 7.11735C14.9633 7.27231 15.3155 7.1713 15.4705 6.89175L18.6216 1.20701Z" fill="white" stroke="black" stroke-width="0.641063"/>
<path d="M4.62941 12.0198C4.62941 10.8396 3.67269 9.88293 2.49253 9.88293C1.31236 9.88293 0.355652 10.8396 0.355652 12.0198V19.5879C0.355652 20.7681 1.31236 21.7248 2.49253 21.7248C3.67269 21.7248 4.62941 20.7681 4.62941 19.5879V12.0198Z" fill="white" stroke="black" stroke-width="0.641063"/>
<path d="M12.1972 20.6564C12.1972 19.4762 11.2405 18.5195 10.0603 18.5195C8.88017 18.5195 7.92346 19.4762 7.92346 20.6564V28.2245C7.92346 29.4047 8.88017 30.3614 10.0603 30.3614C11.2405 30.3614 12.1972 29.4047 12.1972 28.2245V20.6564Z" fill="white" stroke="black" stroke-width="0.641063"/>
<path d="M13.0892 17.3622C17.564 17.3622 21.1915 14.0137 21.1915 9.88314C21.1915 5.75256 17.564 2.40407 13.0892 2.40407C8.61441 2.40407 4.98688 5.75256 4.98688 9.88314C4.98688 14.0137 8.61441 17.3622 13.0892 17.3622Z" fill="white"/>
<path d="M19.2327 8.0134H6.94568C5.86386 8.0134 4.98688 8.89038 4.98688 9.9722V22.2593C4.98688 23.3411 5.86386 24.2181 6.94568 24.2181H19.2327C20.3145 24.2181 21.1915 23.3411 21.1915 22.2593V9.9722C21.1915 8.89038 20.3145 8.0134 19.2327 8.0134Z" fill="white"/>
<path d="M4.62994 10.1947H21.5469H4.62994Z" fill="white"/>
<path d="M4.62994 10.1947H21.5469" stroke="black" stroke-width="0.641063"/>
<path d="M9.34839 6.58882C9.54509 6.58882 9.70454 6.42937 9.70454 6.23267C9.70454 6.03598 9.54509 5.87653 9.34839 5.87653C9.1517 5.87653 8.99225 6.03598 8.99225 6.23267C8.99225 6.42937 9.1517 6.58882 9.34839 6.58882Z" fill="black" stroke="#0B0B0B" stroke-width="0.641063"/>
<path d="M16.8273 6.58882C17.024 6.58882 17.1835 6.42937 17.1835 6.23267C17.1835 6.03598 17.024 5.87653 16.8273 5.87653C16.6306 5.87653 16.4712 6.03598 16.4712 6.23267C16.4712 6.42937 16.6306 6.58882 16.8273 6.58882Z" fill="black" stroke="#0B0B0B" stroke-width="0.641063"/>
</g>
<defs>
<clipPath id="clip0_0_39">
<rect width="26.1768" height="30.7176" fill="white"/>
</clipPath>
</defs>
</svg>
