<svg width="26" height="30" viewBox="0 0 26 30" fill="none" xmlns="http://www.w3.org/2000/svg">
<path d="M20.9785 15.9539C20.9437 12.1639 24.1451 10.32 24.2915 10.2342C22.4784 7.64359 19.6682 7.28964 18.6807 7.26141C16.3204 7.01799 14.031 8.64549 12.8286 8.64549C11.6023 8.64549 9.75085 7.28493 7.75539 7.32491C5.18756 7.36372 2.78532 8.8207 1.4678 11.0832C-1.25122 15.6964 0.77665 22.4757 3.38168 26.2046C4.68479 28.0308 6.20749 30.0699 8.20056 29.9982C10.1504 29.9194 10.8788 28.7799 13.2318 28.7799C15.5633 28.7799 16.2472 29.9982 18.2799 29.9523C20.3725 29.9194 21.6901 28.1178 22.9476 26.2751C24.4535 24.182 25.0582 22.1206 25.0822 22.0147C25.033 21.9983 21.0181 20.4966 20.9785 15.9539Z" fill="white"/>
<path d="M17.1388 4.80841C18.1875 3.52311 18.905 1.77449 18.7059 0C17.188 0.0658525 15.2897 1.02895 14.1966 2.28602C13.2294 3.39376 12.3655 5.2094 12.5887 6.91686C14.2938 7.04151 16.0444 6.07372 17.1388 4.80841Z" fill="white"/>
</svg>
