<svg width="57" height="68" viewBox="0 0 57 68" fill="none" xmlns="http://www.w3.org/2000/svg">
<path d="M7.60423 0.489208C7.25274 1.18614 7.19625 8.24485 7.45569 12.8194C7.56657 14.678 7.67746 16.3756 7.71512 17.4478C7.56658 17.5908 7.27157 17.9481 6.64181 18.6987C3.75661 22.1119 1.59323 26.7761 0.687294 31.0647C-1.05136 39.3565 0.519917 47.4873 5.27348 54.4209C6.9933 56.9049 10.638 60.5324 13.1905 62.266C17.647 65.3038 22.6223 67.1979 28.0789 67.8235C31.0394 68.1631 35.9583 68.0022 38.8058 67.4304C44.5595 66.2687 49.516 63.8206 53.2339 60.3716C54.8805 58.8527 55.6943 57.5304 56.1002 56.0829C57.0815 52.5982 53.9557 48.7739 50.3487 48.2736C48.4426 48.0055 46.5554 48.7739 43.0614 51.3116C39.5276 53.8848 37.7157 54.5281 33.8137 54.9033C31.5374 55.1356 28.6898 54.957 26.7838 54.4209C22.0867 53.1164 17.8876 49.6855 15.5757 45.1822C14.0211 42.1442 13.6717 39.8033 13.7073 36.9797C13.7261 34.9247 14.2262 32.7804 14.9103 31.0111C17.4817 24.4707 23.9174 19.7351 30.8344 19.61C33.4434 19.5564 35.1067 19.8423 37.1613 20.3786C39.1949 20.8968 41.0633 21.7903 43.6347 23.7738C46.0198 25.5965 47.2584 26.1328 48.7209 26.4365C50.6625 26.8654 54.3616 25.2391 55.6379 22.791C56.1002 21.9154 56.2111 21.2721 56.4329 18.4306C56.9518 11.3363 57.2468 1.72224 56.73 0.596425C55.9893 -1.02973 53.215 0.614294 46.0198 6.20752C44.3 7.54773 43.5594 8.45928 43.2832 8.40567C43.0802 8.35206 41.7098 7.92299 40.7495 7.65495C38.0672 6.94017 35.6068 6.61852 32.2592 6.61852C28.7442 6.61852 25.8778 7.08313 23.658 7.69069C22.9927 7.86938 21.0866 8.58436 21.0866 8.58436L16.8708 5.13542C11.3577 0.828747 8.34488 -0.940386 7.60423 0.489208Z" fill="white"/>
</svg>
